<svg id="分離模式" xmlns="http://www.w3.org/2000/svg" viewBox="0 0 93.41 114.95"><defs><style>.cls-1,.cls-2{fill:#fff;}.cls-1{fill-rule:evenodd;}</style></defs><title>f-logo</title><path class="cls-1" d="M345.43,344c3.37-2.74,4.9-14.48,12.62-11.49,2.68,1.25,1.3,11.47,1.51,17.44.17,4.76.86,14.41-5,15.29-11.4,1.7-9.91-23.85,0-22.94,2.05.45-3,5-2.5,6.79.72,1.82,4.88.12,4.57,3-.69,2.6-3.9,1.55-5.81.42-.92-.57-1.35-2.3-1.25-4.24-2.16,3.42-.65,12.85,3.74,12.74,3.25-.09,3.81-5.42,4.16-8.92.61-6.2.34-19.73-1.85-18.54-9.64,4.59-7.1,20.08-14.45,27-3,2.28.78-9.45,2.16-14a130.4,130.4,0,0,1,5-13.59c.29-.81,1-1.07.51.83C348.2,337.67,346.13,340.21,345.43,344Z" transform="translate(-276.3 -315.85)"/><path class="cls-1" d="M325.44,335.57c-1.15-.94,1.57-1.5,1.24-3-.3-1.17-4.44,1.95-5.81.86-2.34-2.61-3.3-6.64-3.32-11.66,0-1.89,3.89,5.74,5.4,9.07,3.7.69,3.84-2.34,7.47-1.73a18.33,18.33,0,0,0,3.73-10.36c0-2.88-7.81.73-10.38-.43,5.05-2.81,13.34-4.31,14.53,1.73.48,2.45-2.68,9.9-5.4,12.08C330.56,334,328,332.78,325.44,335.57Z" transform="translate(-276.3 -315.85)"/><path class="cls-1" d="M324.61,323.05c1.56,1.21,5.07-1.5,5.39,0,.31,2.48-2.13,2.1-3.32,3C326.37,324.67,324.68,324.69,324.61,323.05Z" transform="translate(-276.3 -315.85)"/><path class="cls-1" d="M336.22,337.73c-.92,2.63-6.58,1.31-7.05,3.45a4.37,4.37,0,0,0,0,2.59c.59,1,2.8.44,2.9,1.72.22,6.55-6.67,5.73-7.46,11.22,0,1.27,8.49-.35,7.46-3,1.47-.79,4.05,1,4.57,2.59-3.57,1.6-13.48,2.9-13.69,1.3-.26-3,2.49-2.88,2.9-5.18-1.25-1.2-4.1-2.14-2.08-4.32.6.68,1.05,1.5,2.08,1.73,1.44.2,1.17-1.37,1.25-2.59-.06-1.42-.63-.49-1.66-.43-.59.07.75-2.49,1.87-3.62-5.33-1-8.2,7.23-13.91,4.48-1.55-1.06,2.77-4.31,5-5.61-.2,1.53-2.75,3.13-1.66,3.45,3-.21,7.29-2.73,10.38-4.31C326.61,335.68,332.66,337.51,336.22,337.73Z" transform="translate(-276.3 -315.85)"/><path class="cls-1" d="M351.79,406.85c.81,1.64.77,6,.77,6l2.79-2.61c.72-2.4-.19-5.86-.89-8.33-.39-1.57,2.77-1.05,3.16-.06.66,2.35-.57,4.24-.31,7.19,1.39-1.08,6.84-4.41,7-.8-.66,4.8-1.7,12.43-10.25,11.87,1.53,6.33,15.34,2.09,15.68,4.79.27,2.16-2.5,4-8.58,2.2-1.48-.52-8.7-2.06-10.2-10.7-4.11,3.75-6.08,10.39-10.31,14.22-.77.58-2.57-1.63-2.73-2.9-.15-1.52,2.59-2.57,3.95-4.21,0,0,1.43-6.65,1-9.94-1.95.92-7.18,3.13-9-.56-.37-1.1,5-.91,8.88-3.2-.34-2.13.18-4.9-1.49-5.89.27-.69,2.82-1.2,2.95-.13.28,4.45,1.7,4.06,4.15,4.55.45,1.33-2.21,2.93-3.64,4.16a50.37,50.37,0,0,1-.81,9.29c2.44-2.62,6.82-7.76,6.82-7.76a27.33,27.33,0,0,0-.4-6.73C349.8,406.15,351.09,405.65,351.79,406.85Zm3.75,10.55c-.56.65-2.79,0-2.3,1.18,4.59,1.93,8.06-4.25,8.09-9.52-.06-1.17-3.24,1.64-4.32,2.64C357,411.7,356.12,416.4,355.54,417.4Zm-.58-4.64a12.24,12.24,0,0,0-2.42,2.29s.09,2.24.62,2.17C353.92,417.11,355,414.23,355,412.76Z" transform="translate(-276.3 -315.85)"/><path class="cls-1" d="M325.57,412.24c1.93,1,6,.36,6.94,2.88-2.88.31-5.06,2.23-7.4,3-1.66,5.75-1.77,10.7-9.91,11.54-2.35.34,6.52-5.31,7.15-10.57-4.92,1.09-8,6.46-11.21,5.26-2.38-1-.85-2.69-.29-4.45,3.81,1.06,11.9-2.76,11.9-2.76a8.39,8.39,0,0,0,.73-4.35c-.29-2-3-2.18-2.79-3.86C321.06,405.26,325.74,406.15,325.57,412.24Zm-3.68-2.73a2.58,2.58,0,0,0,1.59,1.47C323.59,407.76,321.61,408.5,321.89,409.51Zm3.39,6.88c1.22-.25,3.09-1.06,3.33-1.52-.34-.66-2-1-3.12-1.47A20.25,20.25,0,0,1,325.28,416.39Z" transform="translate(-276.3 -315.85)"/><path class="cls-1" d="M327.5,423.09c6.56-3.31,13.83,6.91,6.59,7.69-1.69.18-3.35-1.17-5.35-1.45.28-1,2-.49,2.59-1.42C331.92,426.62,329.28,424.15,327.5,423.09Z" transform="translate(-276.3 -315.85)"/><path class="cls-2" d="M358.45,380.52c-2.78-2.21-13.15-12.38-15.69-15.09a21.72,21.72,0,0,0-2.33-2.58,14.28,14.28,0,0,0-2.07,1.55c-2,1.55-3.95,3.15-5.82,4.65a41.2,41.2,0,0,1-6.59-6.2s-1,1.37-1.73,1.45c-.31,0-9.61-7.7-10.29-8.82C301.18,369.05,278.27,376.81,277,378c.1,3.35,3.57,4.32,7.55,4.71,7.35-2.71,15.32-10.11,16.55-13.81a30.29,30.29,0,0,1-9.54,4.36,119.12,119.12,0,0,0,17.18-11.13c-4.9,7.29-14,18.44-22.87,20.74,4.85.27,10.8.2,13.92,2.48,3.88-2.44,8.36-6.28,15.08-5.9a40.27,40.27,0,0,1,17.77,4.66c17.07,8.69,27.37,2.61,27.37,2.61a22.67,22.67,0,0,1-3.32.09,72,72,0,0,1-7.5-.77A32,32,0,0,1,336,381c-1.37-1-2.76-2.11-4.13-3-4.79-3-13.36-3.06-10-12.67.83,0,2.2,1.68,2.2,1.68l1.55-1.29s8.63,11.9,22.16,15.78c0,0-12.22-7.16-7.81-16.43,2.87,3.77,15.1,13.83,18,15.34C358.13,380.42,359.11,381,358.45,380.52Z" transform="translate(-276.3 -315.85)"/><path class="cls-1" d="M299.24,384.52c5.67-2.84,12.28-3.88,21.14-2.32,9.43,1.66,21,9.73,32.8,7.62,1.3-.24,2.29-.88,3.54-1.1.15,0,0-.14,0,.14-4.88,3.26-11,3.45-17.83,1.08-4.87-1.69-9.88-3.68-15.07-5a42.74,42.74,0,0,0-23.81.93Z" transform="translate(-276.3 -315.85)"/><path class="cls-1" d="M315.92,385.24c-9.79-1.27-17.35,1.63-11.72,2.92,5.2,1.2,11.85.35,15.13.15s7,.81,3.46,1.8c-4.45,1.25-12.15,2.51-5.23,5.38,4.54,1.89,11.25,3.29,21,3.52s14.56-1.65,18.36-5.68c0,0-13.39,2.48-24.08,1.26-9.83-1.12-15.65-1.67-8.6-3.52s3.61-3.19.25-3.68c-4.48-.66-15.54.81-19.1-.26C304.19,386.77,308.33,385.31,315.92,385.24Z" transform="translate(-276.3 -315.85)"/><path class="cls-2" d="M283.2,356.84a7.78,7.78,0,0,1,1.51-4.58,8.23,8.23,0,1,0,10.34,11.29,7.65,7.65,0,0,1-4,1.12A7.83,7.83,0,0,1,283.2,356.84Z" transform="translate(-276.3 -315.85)"/><polygon class="cls-1" points="22.2 37.69 31.28 36.97 22.27 36.53 24.39 34.15 21.35 35.38 23.46 26.55 20.28 34.95 18.68 32.21 18.92 35.52 11.14 30.77 18.12 36.37 15.07 37.04 18.3 37.84 11.34 43.79 18.85 38.87 18.54 41.96 20.28 39.17 23.79 47.62 21.42 38.91 24.3 40.18 22.2 37.69"/><path class="cls-2" d="M279.85,400.38a5.28,5.28,0,0,1-1.49-.19,5.76,5.76,0,0,1-1.13-.46,4.07,4.07,0,0,1-.74-.53l-.19-.2a1.29,1.29,0,0,1,.17-.16.33.33,0,0,1,.17,0,.3.3,0,0,1,.13,0,1.27,1.27,0,0,1,.23.08h0l.23.07.29.15h0c.25.09.54.18.86.26a6.47,6.47,0,0,0,1.19.16h.21a4,4,0,0,0,1.21-.16,2.77,2.77,0,0,0,.84-.45,1.78,1.78,0,0,0,.49-.65,1.7,1.7,0,0,0,.15-.67,1.56,1.56,0,0,0-.34-1.05,3.92,3.92,0,0,0-.86-.79,11.91,11.91,0,0,0-1.22-.73l-1.44-.79a5.12,5.12,0,0,1-1.74-1.48,2.39,2.39,0,0,1-.46-1.62,2.59,2.59,0,0,1,.35-1.12,2.52,2.52,0,0,1,.73-.79,3,3,0,0,1,1-.47,4.14,4.14,0,0,1,1.15-.16,5.38,5.38,0,0,1,1.75.26,7.15,7.15,0,0,1,1.29.58,4.6,4.6,0,0,1,.81.6l-.1.08h0a.3.3,0,0,1-.18.06.82.82,0,0,1-.33-.09h0l-.27-.11-.33-.13a7,7,0,0,0-1.13-.32,5,5,0,0,0-.95-.11h-.12l-.53,0a3.65,3.65,0,0,0-.57.14,1.71,1.71,0,0,0-.52.31,1.25,1.25,0,0,0-.06,1.81,4.67,4.67,0,0,0,1.08.85c.43.25.91.51,1.44.77a11.34,11.34,0,0,1,1.4.81,5,5,0,0,1,1.31,1.26,3,3,0,0,1,.51,1.21,2.64,2.64,0,0,1-.06,1.12,3.83,3.83,0,0,1-.44,1,3.22,3.22,0,0,1-1.51,1.2A5.94,5.94,0,0,1,279.85,400.38Z" transform="translate(-276.3 -315.85)"/><path class="cls-2" d="M288.18,400.4a2.3,2.3,0,0,1-1-.23,2.65,2.65,0,0,1-.9-.69,3.56,3.56,0,0,1-.65-1.19,5.08,5.08,0,0,1-.25-1.7l0-5a1.51,1.51,0,0,1,.42-1.22,1.82,1.82,0,0,1,1-.36c0,.13,0,.28,0,.47s0,.44,0,.85v1.1a.35.35,0,0,0,.35.34h2a1.28,1.28,0,0,1-.32.67,1.25,1.25,0,0,1-1,.36h-.66a.35.35,0,0,0-.35.34v2.47a5,5,0,0,0,.14,1.32,3.12,3.12,0,0,0,.41.92h0a1.81,1.81,0,0,0,1.49.72,3,3,0,0,0,.66-.08.75.75,0,0,1-.1.33,1,1,0,0,1-.28.31A1.64,1.64,0,0,1,288.18,400.4Z" transform="translate(-276.3 -315.85)"/><path class="cls-2" d="M293.65,400.38a6.07,6.07,0,0,1-.71-.05,3,3,0,0,1-.69-.21h0a2.51,2.51,0,0,1-.64-.36,1.69,1.69,0,0,1-.47-.55h0a2.06,2.06,0,0,1-.29-1.06V398a1.68,1.68,0,0,1,.23-.94v0a1.79,1.79,0,0,1,.63-.66,3.4,3.4,0,0,1,.95-.4,4.89,4.89,0,0,1,1.15-.13,5.38,5.38,0,0,1,1.62.24l.1,0a.35.35,0,0,0,.22-.08.34.34,0,0,0,.13-.3,4,4,0,0,0-.25-1.05,1.86,1.86,0,0,0-.84-1,1.79,1.79,0,0,0-.46-.16,2.89,2.89,0,0,0-.53,0h-.21a2.43,2.43,0,0,0-.55.09l-.52.15a3,3,0,0,1-.46.14,1.28,1.28,0,0,1-.38.05.81.81,0,0,1-.31-.06.55.55,0,0,1-.14-.13,3.76,3.76,0,0,1,1-.67,3.62,3.62,0,0,1,1.41-.36h.27a3.31,3.31,0,0,1,1.32.26,3,3,0,0,1,1,.72,3.81,3.81,0,0,1,.93,2.6v.13a4.21,4.21,0,0,1-.85,2.72,3.2,3.2,0,0,1-1,.81,3.55,3.55,0,0,1-1.29.4h-.4Zm-1.42-1.32a1.37,1.37,0,0,0,.53.38,1.94,1.94,0,0,0,.86.16l.25,0a1.82,1.82,0,0,0,1-.34,1.26,1.26,0,0,0,.37-.32,2.4,2.4,0,0,0,.25-.37,2.75,2.75,0,0,0,.29-.78,3.68,3.68,0,0,0,.08-.71.34.34,0,0,0-.23-.32.23.23,0,0,0-.11,0l-.15,0-.17,0h-.05l-.52-.07a4.44,4.44,0,0,0-.63,0,4.12,4.12,0,0,0-.51,0,2,2,0,0,0-.49.11,1.62,1.62,0,0,0-.81.54,1.09,1.09,0,0,0-.19.33,1.21,1.21,0,0,0-.09.34.82.82,0,0,0,0,.23,2,2,0,0,0,.06.46A1.29,1.29,0,0,0,292.23,399.06Z" transform="translate(-276.3 -315.85)"/><path class="cls-2" d="M299.91,400.19a2,2,0,0,1-1-.35,1.46,1.46,0,0,1-.44-1.21v-2.26a4.3,4.3,0,0,1,.31-1.76,2.57,2.57,0,0,1,1.85-1.53,6,6,0,0,1,1.25-.14h.56a1.29,1.29,0,0,1,0,.28.71.71,0,0,1-.16.34.64.64,0,0,1-.43.17,3.61,3.61,0,0,0-.65.15,1.67,1.67,0,0,0-.65.41,2.12,2.12,0,0,0-.45.8,4,4,0,0,0-.17,1.28v2.52c0,.34,0,.62,0,.85S299.9,400.07,299.91,400.19Z" transform="translate(-276.3 -315.85)"/><path class="cls-2" d="M277.78,413.55a1.86,1.86,0,0,1-1-.35,1.47,1.47,0,0,1-.44-1.22v-9.74h0l.24,0h.3a3.64,3.64,0,0,1,.95.12,2.3,2.3,0,0,1,.79.41,2.88,2.88,0,0,1,.72.78,6.63,6.63,0,0,1,.63,1.28s0,.12.1.29a4.61,4.61,0,0,1,.18.5l.23.64.24.71c.18.5.38,1.09.65,1.86a.32.32,0,0,0,.32.23h0a.35.35,0,0,0,.33-.23l1.37-4a6.35,6.35,0,0,1,.64-1.28,3,3,0,0,1,.71-.78,2.43,2.43,0,0,1,.8-.41,3.58,3.58,0,0,1,.95-.12h.29l.25,0h0l0,10c0,.3,0,.62,0,.86s0,.34,0,.46a2,2,0,0,1-1-.35,1.44,1.44,0,0,1-.44-1.22l.1-8.1a.34.34,0,0,0-.28-.35h-.06a.35.35,0,0,0-.33.23c-.3.88-.62,1.76-.93,2.62-.13.35-.26.7-.39,1.07l-.05.12-.34.91-.33.89c-.1.26-.19.48-.27.65a1.34,1.34,0,0,1-.51.63,1.77,1.77,0,0,1-.64.21h-.12a2,2,0,0,1-.47-.07l-2.61-7.05a.35.35,0,0,0-.32-.22H278a.36.36,0,0,0-.28.35l.07,8.35c0,.34,0,.63,0,.86S277.77,413.43,277.78,413.55Z" transform="translate(-276.3 -315.85)"/><path class="cls-2" d="M292,413.76a3.18,3.18,0,0,1-1.36-.3,3.64,3.64,0,0,1-1.13-.82,3.94,3.94,0,0,1-.76-1.21,3.87,3.87,0,0,1-.28-1.49,4.6,4.6,0,0,1,.25-1.51,3.58,3.58,0,0,1,.7-1.2,3.28,3.28,0,0,1,1.12-.82,3.43,3.43,0,0,1,1.46-.3,3.23,3.23,0,0,1,1.38.3,3.72,3.72,0,0,1,1.11.82,3.82,3.82,0,0,1,.78,1.21,4.12,4.12,0,0,1,.28,1.5,4.34,4.34,0,0,1-.26,1.5,3.78,3.78,0,0,1-.71,1.2,3.28,3.28,0,0,1-1.12.82A3.43,3.43,0,0,1,292,413.76Zm0-6.84a2,2,0,0,0-.64.12,1.82,1.82,0,0,0-.72.48,2.48,2.48,0,0,0-.54.94,5.05,5.05,0,0,0,0,3,2.74,2.74,0,0,0,.54.94,1.72,1.72,0,0,0,.72.48,1.64,1.64,0,0,0,1.28,0,1.66,1.66,0,0,0,.72-.49,2.59,2.59,0,0,0,.54-.93,4.1,4.1,0,0,0,.22-1.47,4.16,4.16,0,0,0-.22-1.48,2.48,2.48,0,0,0-.54-.94,1.82,1.82,0,0,0-.72-.48A2,2,0,0,0,292,406.92Z" transform="translate(-276.3 -315.85)"/><path class="cls-2" d="M300.24,413.76a3.14,3.14,0,0,1-1.36-.3,3.85,3.85,0,0,1-1.14-.82,3.92,3.92,0,0,1-.75-1.21,3.87,3.87,0,0,1-.28-1.49,4.35,4.35,0,0,1,.25-1.51,3.58,3.58,0,0,1,.7-1.2,3.34,3.34,0,0,1,1.11-.82,3.51,3.51,0,0,1,1.47-.3,3.16,3.16,0,0,1,1.37.3,3.64,3.64,0,0,1,1.12.82,3.73,3.73,0,0,1,.77,1.21,3.89,3.89,0,0,1,.28,1.5,4.33,4.33,0,0,1-.25,1.5,3.53,3.53,0,0,1-.72,1.2,3.24,3.24,0,0,1-1.11.82A3.43,3.43,0,0,1,300.24,413.76Zm0-6.84a2.09,2.09,0,0,0-.65.12,1.86,1.86,0,0,0-.71.48,2.54,2.54,0,0,0-.55.94,4.42,4.42,0,0,0-.21,1.48,4.36,4.36,0,0,0,.21,1.47,2.81,2.81,0,0,0,.55.94,1.73,1.73,0,0,0,.71.48,1.87,1.87,0,0,0,.65.13,1.82,1.82,0,0,0,.64-.13,1.75,1.75,0,0,0,.72-.49,2.51,2.51,0,0,0,.54-.93,4.36,4.36,0,0,0,.21-1.47,4.42,4.42,0,0,0-.21-1.48,2.29,2.29,0,0,0-.55-.94,1.86,1.86,0,0,0-.71-.48A2,2,0,0,0,300.24,406.92Z" transform="translate(-276.3 -315.85)"/><path class="cls-2" d="M312,413.56a2,2,0,0,1-1.07-.37,1.45,1.45,0,0,1-.44-1.21l0-2.44a4.2,4.2,0,0,0-.17-1.29,2.11,2.11,0,0,0-.47-.82,1.49,1.49,0,0,0-.69-.43,2.24,2.24,0,0,0-.68-.1,2.35,2.35,0,0,0-.69.1,1.64,1.64,0,0,0-.67.43,2.18,2.18,0,0,0-.45.83,3.81,3.81,0,0,0-.17,1.28v2.7c0,.35,0,.63,0,.85s0,.34,0,.46a2,2,0,0,1-1.06-.36,1.45,1.45,0,0,1-.44-1.21l0-2.44a4.18,4.18,0,0,1,.31-1.76,2.77,2.77,0,0,1,.76-1,2.66,2.66,0,0,1,1.06-.5,5.83,5.83,0,0,1,2.54,0,2.86,2.86,0,0,1,1.09.5,2.68,2.68,0,0,1,.78,1,4.18,4.18,0,0,1,.31,1.76Z" transform="translate(-276.3 -315.85)"/><path class="cls-2" d="M280.66,427.07a7.46,7.46,0,0,1-2.19-.27,2.47,2.47,0,0,1-1.26-.85,3.74,3.74,0,0,1-.68-1.65,15.81,15.81,0,0,1-.2-2.71v-4.67c0-.32,0-.61,0-.84s0-.33,0-.46c1,.1,1.39.63,1.39,1.66l0,4.42a15,15,0,0,0,.1,1.93,3.25,3.25,0,0,0,.45,1.38,2,2,0,0,0,1,.81,4.91,4.91,0,0,0,1.62.22h.8c.23,0,.44,0,.61,0h.11a.64.64,0,0,1-.06.16,1.15,1.15,0,0,1-.31.42,1.72,1.72,0,0,1-.58.35A2.32,2.32,0,0,1,280.66,427.07Z" transform="translate(-276.3 -315.85)"/><path class="cls-2" d="M286.55,427.24a5.78,5.78,0,0,1-.71-.05,2.89,2.89,0,0,1-.69-.21h0a2.51,2.51,0,0,1-.64-.36,1.69,1.69,0,0,1-.47-.55v0a1.91,1.91,0,0,1-.29-1.05v-.09A1.69,1.69,0,0,1,284,424v0a1.79,1.79,0,0,1,.63-.66,3.72,3.72,0,0,1,1-.4,4.83,4.83,0,0,1,1.15-.13,5.38,5.38,0,0,1,1.62.24l.1,0a.35.35,0,0,0,.22-.08.31.31,0,0,0,.12-.3,3.37,3.37,0,0,0-.25-1.05,1.84,1.84,0,0,0-.83-1,1.93,1.93,0,0,0-.46-.16,2.27,2.27,0,0,0-.53-.05h-.21a3.43,3.43,0,0,0-.56.08l-.51.16a4,4,0,0,1-.46.14,1.35,1.35,0,0,1-.39.05.8.8,0,0,1-.3-.06.55.55,0,0,1-.14-.13,3.87,3.87,0,0,1,1-.67,3.72,3.72,0,0,1,1.41-.36h.28a3.31,3.31,0,0,1,1.32.26,3,3,0,0,1,1,.72,3.81,3.81,0,0,1,.92,2.59v.14a4.21,4.21,0,0,1-.84,2.72,3.38,3.38,0,0,1-1,.82,3.6,3.6,0,0,1-1.29.39h-.4Zm-1.43-1.32a1.49,1.49,0,0,0,.54.38,1.94,1.94,0,0,0,.86.16l.25,0a1.85,1.85,0,0,0,1-.34,1.64,1.64,0,0,0,.37-.32,1.81,1.81,0,0,0,.24-.37,2.33,2.33,0,0,0,.3-.78,3.76,3.76,0,0,0,.08-.71.34.34,0,0,0-.23-.32.23.23,0,0,0-.11,0l-.15,0-.18,0h0l-.51-.07a4.44,4.44,0,0,0-.63,0l-.51,0a2.35,2.35,0,0,0-.49.11,1.6,1.6,0,0,0-.82.55,1.33,1.33,0,0,0-.18.31,1.13,1.13,0,0,0-.09.35.8.8,0,0,0,0,.23,1.61,1.61,0,0,0,.07.46A1.26,1.26,0,0,0,285.12,425.92Z" transform="translate(-276.3 -315.85)"/><path class="cls-2" d="M298.26,427.06a2,2,0,0,1-1.06-.37,1.42,1.42,0,0,1-.45-1.2l0-2.45a4.13,4.13,0,0,0-.17-1.28,2,2,0,0,0-.47-.83,1.51,1.51,0,0,0-.68-.43,2.4,2.4,0,0,0-.69-.1,2.24,2.24,0,0,0-.68.1,1.6,1.6,0,0,0-.68.43,2.38,2.38,0,0,0-.46.82,4.19,4.19,0,0,0-.16,1.29v2.7c0,.35,0,.63,0,.85s0,.34,0,.46a2,2,0,0,1-1.06-.36,1.45,1.45,0,0,1-.44-1.2l0-2.45a4.14,4.14,0,0,1,.31-1.76,2.77,2.77,0,0,1,.76-1,2.66,2.66,0,0,1,1.06-.5,5.83,5.83,0,0,1,2.54,0,2.65,2.65,0,0,1,1.09.5,2.61,2.61,0,0,1,.78,1,4.14,4.14,0,0,1,.31,1.76Z" transform="translate(-276.3 -315.85)"/><path class="cls-2" d="M303.07,427.24a3.29,3.29,0,0,1-1.36-.29,4,4,0,0,1-1.14-.82,3.76,3.76,0,0,1-.75-1.2,3.87,3.87,0,0,1-.28-1.49,4.35,4.35,0,0,1,.25-1.51,3.78,3.78,0,0,1,.7-1.22,3.47,3.47,0,0,1,1.11-.8,3.51,3.51,0,0,1,1.47-.3,3.23,3.23,0,0,1,1.6.41.38.38,0,0,0,.34,0,.36.36,0,0,0,.17-.31v-2.44a1.42,1.42,0,0,1,.44-1.21,1.92,1.92,0,0,1,1.05-.36c0,.13,0,.28,0,.47s0,.53,0,.86l0,6.41a4.26,4.26,0,0,1-.25,1.48,4.07,4.07,0,0,1-.72,1.23,3.3,3.3,0,0,1-1.11.79A3.47,3.47,0,0,1,303.07,427.24Zm0-6.84a2.09,2.09,0,0,0-.65.12,1.86,1.86,0,0,0-.71.48,2.49,2.49,0,0,0-.55.94,5.32,5.32,0,0,0,0,3,2.57,2.57,0,0,0,.55.94,1.73,1.73,0,0,0,.71.47,1.87,1.87,0,0,0,.65.13,2,2,0,0,0,1.36-.6,2.62,2.62,0,0,0,.54-.94,5.32,5.32,0,0,0,0-3,2.49,2.49,0,0,0-.55-.94,1.79,1.79,0,0,0-.71-.48A2,2,0,0,0,303.07,420.4Z" transform="translate(-276.3 -315.85)"/></svg>